# xmcd
#
# Track frame offsets: 
#        150
#        14407
#        25547
#        37905
#        51787
#        64010
#        76425
#        93160
#        106972
#        117592
#        126560
#        141465
#        154622
#        165850
#        177270
#        189900
#        204162
#        217315
#        230920
#        244175
#        257912
#        268785
#        281332
#        290865
#        302007
#
# Disc length: 4186 seconds
#
# Revision: 0
# Processed by: cddbd v1.5.2PL0 Copyright (c) Steve Scherf et al.
# Submitted via: ExactAudioCopyFreeDBPlugin 1.0
#
DISCID=6c105819
DTITLE=The Moonglows and The Flamingos - The Moonglows meet The Flamingo
DTITLE=s
DYEAR=1900
DGENRE=Blues
TTITLE0=The Moonglows - Sincerely
TTITLE1=The Moonglows - See Saw
TTITLE2=The Moonglows - In My Diary
TTITLE3=The Moonglows - Blue Velvet
TTITLE4=The Moonglows - Don't Say Goodbye
TTITLE5=The Moonglows - We Go Together
TTITLE6=The Moonglows - Ten Commandments of Love
TTITLE7=The Moonglows - Most of All
TTITLE8=The Moonglows - Please Send Me Someone to Love
TTITLE9=The Moonglows - Over and Over Again
TTITLE10=The Moonglows - Hug and a Kiss
TTITLE11=The Moonglows - Girl of My Dreams, Darling
TTITLE12=The Flamingos - Dram of a Lifetime
TTITLE13=The Flamingos - Kokomo
TTITLE14=The Flamingos - Whispering Stars
TTITLE15=The Flamingos - On My Merry Way
TTITLE16=The Flamingos - The Vow
TTITLE17=The Flamingos - Would I Be Crying
TTITLE18=The Flamingos - I'll Be Home
TTITLE19=The Flamingos - A Kiss from Your Lips
TTITLE20=The Flamingos - Shilly Dilly
TTITLE21=The Flamingos - Stolen Love
TTITLE22=The Flamingos - Chickie Um Bah
TTITLE23=The Flamingos - Nobody's Love
TTITLE24=The Flamingos - 'Chicka Boom' That's My Baby
EXTD=
EXTT0=
EXTT1=
EXTT2=
EXTT3=
EXTT4=
EXTT5=
EXTT6=
EXTT7=
EXTT8=
EXTT9=
EXTT10=
EXTT11=
EXTT12=
EXTT13=
EXTT14=
EXTT15=
EXTT16=
EXTT17=
EXTT18=
EXTT19=
EXTT20=
EXTT21=
EXTT22=
EXTT23=
EXTT24=
PLAYORDER=
